#N canvas -9 -9 1920 976 10;
#X obj 4 -93 tgl 30 0 empty empty empty 17 7 0 10 -4034 -1 -1 0 1;
#X msg 4 -45 \; pd dsp \$1;
#X obj 366 459 vsl 50 128 0 1 0 0 empty empty empty 0 -9 0 10 -260097
-1 -1 9500 1;
#X obj 164 591 *~;
#X obj 209 591 *~;
#X obj 165 614 dac~ 1 2;
#N canvas 0 0 450 300 (subpatch) 0;
#X array channelL 230400 float 2;
#X coords 0 1 230400 -1 200 140 1;
#X restore 410 -109 graph;
#N canvas 0 0 450 300 (subpatch) 0;
#X array channelR 230400 float 2;
#X coords 0 1 230400 -1 200 140 1;
#X restore 408 52 graph;
#X obj 163 -66 bng 30 250 50 0 empty empty empty 17 7 0 10 -4034 -1
-1;
#X obj 165 -9 openpanel;
#X msg 165 16 read -resize \$1 channelL channelR;
#X obj 165 40 soundfiler;
#X floatatom 179 67 12 0 0 0 - - -;
#X obj 165 112 expr 4410/$f1;
#X obj 180 89 s sampleSize;
#X floatatom 172 160 12 0 0 0 - - -;
#X obj 164 247 phasor~;
#X obj 196 267 r sampleSize;
#X obj 165 544 tabread4~ channelL;
#X obj 210 564 tabread4~ channelR;
#N canvas 75 214 450 300 META 0;
#X restore 459 570 pd META;
#X obj 285 376 snapshot~;
#X obj 283 266 tgl 30 0 empty empty empty 17 7 0 10 -4034 -1 -1 1 1
;
#X obj 285 354 metro 50;
#X floatatom 285 399 12 0 0 0 - - -;
#X obj 285 439 /;
#X obj 313 418 r sampleSize;
#X floatatom 285 466 5 0 0 0 - - -;
#X obj 410 204 hsl 195 15 0 1 0 0 empty empty empty -2 -8 0 10 -258113
-1 -1 17484 1;
#X obj 165 359 *~ 0.2;
#X obj 262 182 hsl 128 15 -1 1 0 0 empty empty empty -2 -8 0 10 -262144
-1 -1 6700 1;
#X floatatom 259 202 5 0 0 0 - - -;
#X text 257 141 PLAYBACK SpeeD;
#X msg 398 224 0;
#X msg 504 224 0.5;
#X msg 464 224 0.3;
#X msg 545 223 0.7;
#X msg 427 224 0.1;
#X msg 582 225 0.9;
#X msg 485 249 0.4;
#X msg 448 249 0.2;
#X msg 523 249 0.6;
#X msg 562 249 0.8;
#X text 202 -52 PRESS to OPEN WAV.;
#X text 373 594 VOLUME;
#X text 39 -86 ON/OFF;
#X text 318 272 ON/OFF for Time display in GRAPH;
#X text 618 202 TIME;
#X text 614 237 [TIME locations];
#X text 175 131 MATCH number TO >>;
#X msg 259 158 0.000150347;
#X obj 558 472 vu 15 120 empty empty -1 -8 0 10 -66577 -1 1 0;
#X connect 0 0 1 0;
#X connect 2 0 4 1;
#X connect 2 0 3 1;
#X connect 3 0 5 0;
#X connect 4 0 5 1;
#X connect 8 0 9 0;
#X connect 9 0 10 0;
#X connect 10 0 11 0;
#X connect 11 0 12 0;
#X connect 11 0 13 0;
#X connect 12 0 14 0;
#X connect 13 0 15 0;
#X connect 13 0 16 0;
#X connect 16 0 29 0;
#X connect 17 0 29 1;
#X connect 18 0 3 0;
#X connect 19 0 4 0;
#X connect 21 0 24 0;
#X connect 22 0 23 0;
#X connect 23 0 21 0;
#X connect 24 0 25 0;
#X connect 25 0 27 0;
#X connect 26 0 25 1;
#X connect 27 0 28 0;
#X connect 29 0 18 0;
#X connect 29 0 19 0;
#X connect 29 0 21 0;
#X connect 30 0 31 0;
#X connect 31 0 16 0;
#X connect 33 0 16 1;
#X connect 34 0 16 1;
#X connect 35 0 16 1;
#X connect 36 0 16 1;
#X connect 37 0 16 1;
#X connect 38 0 16 1;
#X connect 39 0 16 1;
#X connect 40 0 16 1;
#X connect 41 0 16 1;
#X connect 42 0 16 1;
#X connect 50 0 30 0;
